<svg xmlns="http://www.w3.org/2000/svg" xmlns:xlink="http://www.w3.org/1999/xlink" width="127.969" height="66" viewBox="0 0 127.969 66">
  <defs>
    <style>
      .cls-1 {
        fill-rule: evenodd;
        fill: url(#linear-gradient);
      }
    </style>
    <linearGradient id="linear-gradient" x1="536" y1="47" x2="408.031" y2="47" gradientUnits="userSpaceOnUse">
      <stop offset="0" stop-color="#9229a3"/>
      <stop offset="1" stop-color="#ff6400"/>
    </linearGradient>
  </defs>
  <path class="cls-1" d="M504.58,76.455a13.426,13.426,0,0,0-2.29-1.062,30.571,30.571,0,0,0-3.067-1.047,4.684,4.684,0,0,0-1.919-.375c-9.411,2.154-19.188,3.779-28.863,2.779a53.235,53.235,0,0,1-6.471-1.086l-0.153-.035-0.043-.012c-0.242-.066-0.483-0.131-0.724-0.2-0.159-.045-1.139-0.282-0.2-0.053-0.131-.032-0.273-0.07-0.413-0.114-0.043-.018-0.121-0.05-0.25-0.1-0.724-.288.121,0.053,0.193,0.083l0,0-0.281-.112-0.32-.122c-0.228-.093-0.452-0.2-0.678-0.3a4.706,4.706,0,0,0-1.7-.9l-0.048-.023,0.087,0.045c-0.12-.062-0.242-0.12-0.362-0.18l-0.092-.045-0.032-.018c-0.117-.065-0.234-0.132-0.35-0.2-0.556-.325-1.1-0.672-1.627-1.045a31.936,31.936,0,0,1-2.981-2.446c-2-1.825-3.835-3.824-5.705-5.781l-0.37-.382c-0.11-.152-0.221-0.3-0.328-0.457a40.167,40.167,0,0,1-2.546-4.362c2.574-7.535,2.847-15.974,3.277-23.81,0.171-3.118.329-6.253,0.732-9.352a12.694,12.694,0,0,1,2.438-6.719,6.169,6.169,0,0,1,3.027-1.971,9.352,9.352,0,0,1,1.473-.273q0.247,0.209.485,0.429a18.739,18.739,0,0,1,2.531,2.992,24.911,24.911,0,0,1,2.04,3.522,1.952,1.952,0,0,0,.9.642,20.114,20.114,0,0,0,2.372.983,21.722,21.722,0,0,0,2.456.748,3.74,3.74,0,0,0,1.1.076,23.624,23.624,0,0,0-3.932-6.24c-2.594-2.724-6.3-4.1-9.826-5.139-2.552-.755-5.315-1.244-7.857-0.193a7.807,7.807,0,0,0-4.328,5.25,39.034,39.034,0,0,0-1.2,8.125c-0.264,3.135-.39,6.281-0.58,9.421a74.031,74.031,0,0,1-2.608,17.258c-0.088.287-.18,0.573-0.274,0.859a40.982,40.982,0,0,0-4.316-1.827c-3.234-1.165-6.736-2.24-10.219-1.921a14.527,14.527,0,0,0-7.121,2.687,13.554,13.554,0,0,0-5.281,13.68,8.339,8.339,0,0,0,4.768,5.717c3.738,1.831,8.22,3.443,12.433,2.6a21.834,21.834,0,0,0,12.23-7.823,28.682,28.682,0,0,0,3.045-4.554q0.558,0.648,1.15,1.267a34.933,34.933,0,0,0,4.794,4.148c0.679,0.521,1.381,1.016,2.112,1.477,0.76,0.478,1.547.913,2.349,1.315q0.885,0.479,1.787.919a66.821,66.821,0,0,0,33.822,6.647,116.376,116.376,0,0,0,18.033-2.891C505.287,76.856,504.72,76.544,504.58,76.455Zm-76.887-8.42A19.461,19.461,0,0,1,417.3,73.486c-0.06-.092-0.119-0.183-0.174-0.277a9.273,9.273,0,0,1-1.078-3.332,13.558,13.558,0,0,1,13.357-15.206,10.866,10.866,0,0,1,1.15.071c0.312,0.189.677,0.417,0.936,0.588a28.047,28.047,0,0,1,3,2.309A29.178,29.178,0,0,1,427.693,68.034Zm29.656,5.745c-0.414-.213-0.152-0.072,0,0h0Zm17.025-18.308c-1.237-3.962-2.411-7.942-3.6-11.918-0.831-2.78-1.616-5.583-2.481-8.357q0.636-.372,1.291-0.718a3.331,3.331,0,0,0-.895-0.639c-0.319-.157-0.643-0.3-0.971-0.438-0.214-.653-0.433-1.3-0.662-1.953a1.805,1.805,0,0,0-.852-0.608,19.032,19.032,0,0,0-2.249-.932,20.737,20.737,0,0,0-2.328-.71,2.462,2.462,0,0,0-1.044-.071c0.266,1.151.565,2.294,0.879,3.435A23.233,23.233,0,0,0,450.28,43.333c-2.765,5.484-3.471,12.646-1.084,18.4a10.083,10.083,0,0,0,2.259,3.476c1.753,1.667,4.261,2.525,6.5,3.287a20.664,20.664,0,0,0,6.664,1.285,34.193,34.193,0,0,0,4.472-.3c2.753-.364,5.544-1.436,6.506-4.284C476.685,61.971,475.336,58.552,474.374,55.471Zm-8.605,9.987c-2.144,1.32-5.034,1.394-7.51,1.448a9.857,9.857,0,0,1-1.5-2.663c-2.1-5.414-1.582-11.838.623-17.122a23.345,23.345,0,0,1,5.9-8.274c0.017,0.057.033,0.113,0.05,0.17,0.942,3.259,1.908,6.513,2.835,9.777,0.451,1.591.884,3.188,1.322,4.782a32.481,32.481,0,0,1,1.095,4.723C468.912,61.008,468.224,63.947,465.769,65.459Zm40.884-46.545a28.6,28.6,0,0,0-5.931-1.777,29.815,29.815,0,0,0-3.418-.251l-14.039-.654c-2.092-.1-4.22-0.319-6.315-0.242a5.784,5.784,0,0,0-4.049,1.384c-1.364,1.473-.566,3.736-0.216,5.448q0.689,3.377,1.355,6.758l2.748,13.835q1.372,6.912,2.726,13.828,0.322,1.645.644,3.291a8.972,8.972,0,0,0,.752,2.509,4.415,4.415,0,0,0,2.1,1.83,28.4,28.4,0,0,0,4.064,1.613,15.581,15.581,0,0,0,3.172.786c2.283,0.232,3.615-1.441,4.712-3.2q2.118-3.39,4.222-6.79,4.134-6.648,8.267-13.3c0.315-.507-6.106-2.666-6.73-2.789q-3.368-.663-6.734-1.332a15.335,15.335,0,0,0-2.279-.45l-3.343-.662c-0.433-.086-2.053-0.3-0.843.35q4.655,2.517,9.313,5.028,0.267,0.144.545,0.277l-5.944,9.577-3.946,6.36q-0.126-.626-0.253-1.254-0.974-4.782-1.938-9.567l-3.8-18.956q-0.479-2.386-.946-4.775c-0.266-1.367-.8-2.958-0.439-4.349,0.572-2.217,3.146-2.5,5.063-2.473,3.116,0.039,6.243.285,9.356,0.431l8.991,0.424c0.214,1.1-.487,2.194-1.027,3.2-1.713,3.175-3.428,6.341-4.921,9.626-0.2.434,3.182,1.627,3.5,1.741a23.313,23.313,0,0,0,2.633.8,1.72,1.72,0,0,0,1.18.081c1.261-1.953,2.425-3.947,3.574-5.967,0.544-.954,1.074-1.915,1.607-2.875a9.281,9.281,0,0,0,1.425-3.009C511.816,20.879,508.449,19.632,506.653,18.914Zm28.39,29.553a82.223,82.223,0,0,0-7.576-22.119,1.926,1.926,0,0,0-.876-0.626,19.661,19.661,0,0,0-2.314-.959,21.091,21.091,0,0,0-2.4-.73,1.576,1.576,0,0,0-1.074-.074c-2.6,4.292-5.552,8.324-8.389,12.457-0.124.181,1.238,0.77,2.111,1.122q-0.5.98-.993,1.959Q511,44.539,508.464,49.582L506,54.489a22.525,22.525,0,0,0-2.247,4.971c-0.708,3.222,1.934,5.689,4.548,6.981a24.924,24.924,0,0,0,13.67,2.814,18.432,18.432,0,0,0,8.962-3.2,11.943,11.943,0,0,0,4.82-7.363C536.379,55.316,535.685,51.785,535.043,48.467Zm-8.034,11.825a14,14,0,0,1-6.918,5.172,21.233,21.233,0,0,1-7.666,1.245,6.8,6.8,0,0,1-.478-0.566,5.05,5.05,0,0,1-1.011-3.822,16.409,16.409,0,0,1,1.859-4.428q1.149-2.324,2.3-4.646,2.633-5.329,5.26-10.661c1.5-3.037,3.009-6.1,4.3-9.243a87.14,87.14,0,0,1,2.584,8.773,62.2,62.2,0,0,1,1.663,9.652A13.1,13.1,0,0,1,527.009,60.291Z" transform="translate(-408.031 -14)"/>
</svg>
